<?xml version="1.0" encoding="UTF-8"?>
<svg width="260px" height="254px" viewBox="0 0 260 254" version="1.1" xmlns="http://www.w3.org/2000/svg" xmlns:xlink="http://www.w3.org/1999/xlink">
    <!-- Generator: Sketch 57.1 (83088) - https://sketch.com -->
    <title>github</title>
    <desc>Created with Sketch.</desc>
    <g id="Page-1" stroke="none" stroke-width="1" fill="none" fill-rule="evenodd">
        <g id="github" fill="#808080">
            <path d="M130,0 C58.175,0 0,58.2700123 0,130.212318 C0,187.831269 37.2125,236.498123 88.8875,253.751255 C95.3875,254.890613 97.825,250.984243 97.825,247.56617 C97.825,244.473627 97.6625,234.219407 97.6625,223.314125 C65,229.336445 56.55,215.338621 53.95,208.014178 C52.4875,204.270574 46.15,192.714231 40.625,189.621688 C36.075,187.180207 29.575,181.157888 40.4625,180.995122 C50.7,180.832357 58.0125,190.435515 60.45,194.341885 C72.15,214.036498 90.8375,208.502474 98.3125,205.084401 C99.45,196.6206 102.8625,190.923811 106.6,187.668503 C77.675,184.413195 47.45,173.182383 47.45,123.376171 C47.45,109.215582 52.4875,97.4964731 60.775,88.3816109 C59.475,85.1263029 54.925,71.7795403 62.075,53.8753466 C62.075,53.8753466 72.9625,50.4572732 97.825,67.2221092 C108.225,64.292332 119.275,62.8274435 130.325,62.8274435 C141.375,62.8274435 152.425,64.292332 162.825,67.2221092 C187.6875,50.2945079 198.575,53.8753466 198.575,53.8753466 C205.725,71.7795403 201.175,85.1263029 199.875,88.3816109 C208.1625,97.4964731 213.2,109.052816 213.2,123.376171 C213.2,173.345148 182.8125,184.413195 153.8875,187.668503 C158.6,191.737638 162.6625,199.550377 162.6625,211.757782 C162.6625,229.17368 162.5,243.171504 162.5,247.56617 C162.5,250.984243 164.9375,255.053378 171.4375,253.751255 C222.7875,236.498123 260,187.668503 260,130.212318 C260,58.2700123 201.825,0 130,0 Z" id="Path"></path>
        </g>
    </g>
</svg>