<?xml version="1.0" encoding="UTF-8"?>
<svg width="901px" height="267px" viewBox="0 0 901 267" version="1.1" xmlns="http://www.w3.org/2000/svg" xmlns:xlink="http://www.w3.org/1999/xlink">
    <!-- Generator: Sketch 57.1 (83088) - https://sketch.com -->
    <title>download-on-the-app-store-apple-logo-svgrepo-com</title>
    <desc>Created with Sketch.</desc>
    <defs>
        <linearGradient x1="49.9984472%" y1="100.265508%" x2="49.9984472%" y2="-260.382794%" id="linearGradient-1">
            <stop stop-color="#1A1A1A" stop-opacity="0.1" offset="0%"></stop>
            <stop stop-color="#212121" stop-opacity="0.151" offset="12.3%"></stop>
            <stop stop-color="#353535" stop-opacity="0.227" offset="30.8%"></stop>
            <stop stop-color="#575757" stop-opacity="0.318" offset="53.2%"></stop>
            <stop stop-color="#858585" stop-opacity="0.421" offset="78.3%"></stop>
            <stop stop-color="#B3B3B3" stop-opacity="0.51" offset="100%"></stop>
        </linearGradient>
    </defs>
    <g id="Page-1" stroke="none" stroke-width="1" fill="none" fill-rule="evenodd">
        <g id="download-on-the-app-store-apple-logo-svgrepo-com" fill-rule="nonzero">
            <path d="M895,235.438586 C895,242.222519 892.302024,248.72821 887.500336,253.52267 C882.698649,258.317131 876.187136,261.007071 869.400069,261 L31.6333163,261 C17.4937785,261.014739 6.01842717,249.571583 6,235.438586 L6,31.5947693 C6.01841742,17.4563776 17.4883735,6.00366989 31.6333163,6 L869.393392,6 C876.184073,6 882.696528,8.69679677 887.497638,13.4969391 C892.298748,18.2970813 895,24.8072282 895,31.5947693 L895,235.438586 Z" id="Path" fill="#FFFFFF"></path>
            <path d="M869.427662,267 L31.5790059,267 C14.1607648,266.99635 0.0331421488,252.894524 0,235.478657 L0,31.5547276 C0.0257674794,14.1303965 14.1523179,0.0147067923 31.5790059,0 L869.420985,0 C886.84463,0.022044141 900.966887,14.1334436 901,31.5547276 L901,235.478657 C901.013346,252.865138 886.82316,267 869.427662,267 L869.427662,267 Z" id="Path" fill="#A6A6A6"></path>
            <path d="M895,235.438586 C895,242.222519 892.302024,248.72821 887.500336,253.52267 C882.698649,258.317131 876.187136,261.007071 869.400069,261 L31.6333163,261 C17.4937785,261.014739 6.01842717,249.571583 6,235.438586 L6,31.5947693 C6.01841742,17.4563776 17.4883735,6.00366989 31.6333163,6 L869.393392,6 C876.184073,6 882.696528,8.69679677 887.497638,13.4969391 C892.298748,18.2970813 895,24.8072282 895,31.5947693 L895,235.438586 Z" id="Path" fill="#000000"></path>
            <path d="M201.096849,132.405663 C200.902641,110.928738 218.769777,100.480143 219.58679,99.9936972 C209.467884,85.3136886 193.783913,83.3079316 188.272423,83.1480041 C175.099763,81.7686297 162.322215,90.9911136 155.611994,90.9911136 C148.767836,90.9911136 138.43463,83.281277 127.297805,83.5078409 C112.966594,83.7277412 99.5595443,91.9839966 92.2064273,104.804848 C77.0314153,130.946325 88.3490545,169.362235 102.887868,190.492652 C110.160623,200.847955 118.658897,212.396051 129.782329,211.989568 C140.664674,211.549768 144.729648,205.092697 157.862128,205.092697 C170.874064,205.092697 174.691256,211.989568 186.035683,211.729686 C197.714951,211.549768 205.068068,201.334401 212.086343,190.89247 C220.490862,179.037847 223.866063,167.349815 224,166.750087 C223.732127,166.656796 201.324541,158.140658 201.096849,132.405663 Z M179.666999,69.2476419 C185.520027,61.9642786 189.52473,52.0554394 188.413057,42 C179.941569,42.3731641 169.347188,47.8306888 163.246377,54.9541247 C157.848734,61.2312777 153.027018,71.5199447 154.272628,81.1955563 C163.788821,81.9019026 173.559492,76.4177233 179.666999,69.2476419 L179.666999,69.2476419 Z" id="Shape" fill="#FFFFFF"></path>
            <path d="M869.444407,0 L421,0 L596.647677,267 L869.444407,267 C886.852975,266.98531 900.966903,252.877741 901,235.458626 L901,31.5547276 C900.970585,14.1319205 886.856654,0.0183769467 869.444407,0 Z" id="Path" fill="url(#linearGradient-1)"></path>
            <g id="Group" transform="translate(282.000000, 119.000000)" fill="#FFFFFF">
                <path d="M75.910679,90.9477895 L60.742642,90.9477895 L52.4339506,64.8192105 L23.5539012,64.8192105 L15.6392716,90.9477895 L0.871975309,90.9477895 L29.4915432,1.99431579 L47.1642099,1.99431579 L75.910679,90.9477895 L75.910679,90.9477895 Z M49.929321,53.8571053 L42.4154321,30.6294737 C41.6206296,28.2565789 40.1245309,22.6685789 37.9338148,13.8721579 L37.6666543,13.8721579 C36.7850247,17.6554211 35.3757531,23.2434211 33.4455185,30.6294737 L26.0585309,53.8571053 L49.929321,53.8571053 Z M149.366457,58.0882105 C149.366457,68.9968421 146.407654,77.6194737 140.48337,83.9494211 C135.180235,89.5842105 128.588049,92.3982632 120.726852,92.3982632 C112.237827,92.3982632 106.13321,89.3703158 102.426358,83.3010526 L102.426358,116.956053 L88.1867037,116.956053 L88.1867037,47.8881053 C88.1867037,41.0367895 88.0063704,34.0116842 87.6590617,26.8061053 L100.18221,26.8061053 L100.977012,36.9727895 L101.244173,36.9727895 C105.992951,29.3126842 113.199605,25.4826316 122.870815,25.4826316 C130.431457,25.4826316 136.743123,28.4704737 141.792457,34.4528421 C146.835111,40.4485789 149.366457,48.3225789 149.366457,58.0882105 Z M134.859642,58.6095789 C134.859642,52.3665263 133.457049,47.2196842 130.638506,43.1623684 C127.559481,38.9446316 123.425173,36.8324211 118.242259,36.8324211 C114.729099,36.8324211 111.536531,38.0088421 108.684593,40.3282632 C105.825975,42.6677368 103.955852,45.7224211 103.080901,49.5056842 C102.690306,50.920542 102.468355,52.3766813 102.419679,53.8437368 L102.419679,64.5451579 C102.419679,69.2040526 103.848988,73.1410526 106.707605,76.3628421 C109.566222,79.5712632 113.279753,81.1821579 117.848198,81.1821579 C123.211444,81.1821579 127.385827,79.1033684 130.371346,74.9792105 C133.363543,70.8416842 134.859642,65.3873684 134.859642,58.6095789 L134.859642,58.6095789 Z M223.082716,58.0882105 C223.082716,68.9968421 220.123914,77.6194737 214.19963,83.9494211 C208.889815,89.5842105 202.304309,92.3982632 194.436432,92.3982632 C185.947407,92.3982632 179.84279,89.3703158 176.135938,83.3010526 L176.135938,116.956053 L161.896284,116.956053 L161.896284,47.8881053 C161.896284,41.0367895 161.715951,34.0116842 161.368642,26.8061053 L173.89179,26.8061053 L174.686593,36.9727895 L174.953753,36.9727895 C179.695852,29.3126842 186.902506,25.4826316 196.580395,25.4826316 C204.134358,25.4826316 210.446025,28.4704737 215.508716,34.4528421 C220.544691,40.4485789 223.082716,48.3225789 223.082716,58.0882105 L223.082716,58.0882105 Z M208.569222,58.6095789 C208.569222,52.3665263 207.159951,47.2196842 204.341407,43.1623684 C201.262383,38.9446316 197.141432,36.8324211 191.958519,36.8324211 C188.445358,36.8324211 185.25279,38.0088421 182.387494,40.3282632 C179.528877,42.6677368 177.665432,45.7224211 176.790481,49.5056842 C176.356346,51.2703158 176.12258,52.7074211 176.12258,53.8437368 L176.12258,64.5451579 C176.12258,69.2040526 177.558568,73.1410526 180.403827,76.3628421 C183.262444,79.5645789 186.975975,81.1821579 191.557778,81.1821579 C196.927704,81.1821579 201.102086,79.1033684 204.080926,74.9792105 C207.073123,70.8416842 208.569222,65.3873684 208.569222,58.6095789 L208.569222,58.6095789 Z M305.501728,65.9956316 C305.501728,73.5688421 302.85684,79.725 297.600457,84.4774737 C291.816432,89.6644211 283.741506,92.2645789 273.389037,92.2645789 C263.824691,92.2645789 256.157185,90.4197368 250.37316,86.7233684 L253.665914,74.8455263 C259.91079,78.5485789 266.770136,80.3934211 274.237272,80.3934211 C279.607198,80.3934211 283.78158,79.1768947 286.76042,76.7638947 C289.745938,74.3442105 291.255395,71.1090526 291.255395,67.0717895 C291.255395,63.4556316 290.00642,60.4276842 287.555222,57.9612105 C285.090667,55.5014211 281.016469,53.2087368 275.292556,51.1032105 C259.730457,45.2946316 251.942728,36.799 251.942728,25.623 C251.942728,18.3238421 254.694481,12.3481579 260.18463,7.67589474 C265.674778,3.01031579 272.954901,0.677526316 282.011642,0.677526316 C290.099926,0.677526316 296.839049,2.08789474 302.188938,4.90194737 L298.615667,16.5191053 C293.579691,13.7919474 287.895852,12.4283684 281.537432,12.4283684 C276.514815,12.4283684 272.574198,13.6649474 269.755654,16.1247368 C267.384605,18.3238421 266.182383,21.0042105 266.182383,24.1858947 C266.182383,27.6951053 267.55158,30.6094211 270.276617,32.8954211 C272.640988,35.0009474 276.95563,37.2936316 283.193827,39.7534211 C290.847975,42.8415263 296.471704,46.4376316 300.071691,50.5684737 C303.698395,54.6993158 305.501728,59.8528421 305.501728,65.9956316 Z M352.702309,37.5008421 L337.00663,37.5008421 L337.00663,68.6425789 C337.00663,76.5633684 339.771741,80.5137368 345.315321,80.5137368 C347.860025,80.5137368 349.970593,80.2998421 351.640346,79.852 L352.034407,90.6737368 C349.229222,91.7231579 345.535728,92.2512105 340.960605,92.2512105 C335.336877,92.2512105 330.942086,90.5333684 327.769556,87.0976842 C324.610383,83.662 323.020778,77.9068947 323.020778,69.8056316 L323.020778,37.4741053 L313.67016,37.4741053 L313.67016,26.7793684 L323.020778,26.7793684 L323.020778,15.0352105 L337.00663,10.8107895 L337.00663,26.7793684 L352.702309,26.7793684 L352.702309,37.5008421 L352.702309,37.5008421 Z M423.379617,58.3488947 C423.379617,68.2081053 420.561074,76.3026842 414.937346,82.6326316 C409.053136,89.1497368 401.225333,92.3982632 391.467296,92.3982632 C382.049889,92.3982632 374.562716,89.2767368 368.979062,83.0403684 C363.395407,76.7906316 360.60358,68.9166316 360.60358,59.4183684 C360.60358,49.4789474 363.488914,41.3375789 369.239543,35.0076316 C375.003531,28.671 382.764543,25.5026842 392.52258,25.5026842 C401.92663,25.5026842 409.480593,28.6308947 415.197827,34.8739474 C420.661259,40.9298421 423.379617,48.7503684 423.379617,58.3488947 Z M408.619,58.6764211 C408.619,52.801 407.349988,47.7611053 404.805284,43.5433684 C401.819765,38.45 397.545198,35.9033158 392.008296,35.9033158 C386.30442,35.9033158 381.929667,38.45 378.950827,43.5433684 C376.399444,47.7611053 375.130432,52.8878947 375.130432,58.9437895 C375.130432,64.8258947 376.399444,69.8791579 378.950827,74.0835263 C382.029852,79.1768947 386.324457,81.7235789 391.888074,81.7235789 C397.331469,81.7235789 401.599358,79.1234211 404.685062,73.9565263 C407.303235,69.6385263 408.619,64.5652105 408.619,58.6764211 Z M469.68521,39.339 C468.204182,39.0714114 466.701875,38.9394097 465.196914,38.9446316 C460.187654,38.9446316 456.313827,40.8295789 453.58879,44.6262105 C451.22442,47.9683158 450.035556,52.1927368 450.035556,57.2927895 L450.035556,90.9477895 L435.795901,90.9477895 L435.795901,47.0057895 C435.8086,40.2725389 435.670533,33.539849 435.381802,26.8127895 L447.784728,26.8127895 L448.305691,39.085 L448.699753,39.085 C450.20921,34.8672632 452.57358,31.465 455.81958,28.9183158 C458.790762,26.6929932 462.40084,25.4879157 466.111938,25.4826316 C467.427704,25.4826316 468.616568,25.5762105 469.671852,25.7433158 L469.68521,39.339 L469.68521,39.339 Z M533.369593,55.8423158 C533.405701,58.008666 533.231226,60.1733969 532.84863,62.3059474 L490.129667,62.3059474 C490.289963,68.6425789 492.360457,73.4953158 496.32779,76.8374211 C499.927778,79.8185789 504.583049,81.3158421 510.300284,81.3158421 C516.625309,81.3158421 522.395975,80.3132105 527.585568,78.2878947 L529.816358,88.1738421 C523.751815,90.8207895 516.591914,92.1375789 508.329975,92.1375789 C498.391605,92.1375789 490.590519,89.2098947 484.913358,83.3678947 C479.249556,77.5192105 476.410975,69.6585789 476.410975,59.8127368 C476.410975,50.1473684 479.049185,42.0928947 484.332284,35.6693684 C489.862506,28.8113684 497.336321,25.3823684 506.74037,25.3823684 C515.977444,25.3823684 522.97037,28.8113684 527.719148,35.6693684 C531.479432,41.1036316 533.369593,47.8413158 533.369593,55.8423158 L533.369593,55.8423158 Z M519.79116,52.1459474 C519.891346,47.9148421 518.956284,44.2719474 517.026049,41.1905263 C514.561494,37.2201053 510.767815,35.2415789 505.685086,35.2415789 C501.029815,35.2415789 497.236136,37.1733158 494.350802,41.0501579 C491.979753,44.1315789 490.570481,47.8346316 490.136346,52.1325789 L519.79116,52.1459474 Z" id="Shape"></path>
            </g>
            <g id="Group" transform="translate(291.000000, 43.000000)" fill="#FFFFFF">
                <path d="M10.7773165,46.627875 C6.81397468,46.627875 3.38531646,46.43575 0.531443038,46.111125 L0.531443038,3.485875 C4.52291313,2.87468647 8.55644329,2.57343716 12.5952405,2.58456119 C28.9365063,2.58456119 36.4621772,10.55475 36.4621772,23.546375 C36.4621772,38.532125 27.5730633,46.627875 10.7773165,46.627875 Z M13.1700253,8.0505 C10.9644557,8.0505 9.08637975,8.183 7.52911392,8.501 L7.52911392,40.903875 C8.37124051,41.036375 9.98865823,41.096 12.2610633,41.096 C22.9681013,41.096 29.0634937,35.054 29.0634937,23.7385 C29.0634937,13.648625 23.5495696,8.0505 13.1700253,8.0505 L13.1700253,8.0505 Z M59.9147342,46.9525 C50.7048101,46.9525 44.7364051,40.135375 44.7364051,30.88025 C44.7364051,21.23425 50.8317975,14.3575 60.4360506,14.3575 C69.5123038,14.3575 75.6143797,20.85 75.6143797,30.370125 C75.6143797,40.135375 69.3251646,46.9525 59.9147342,46.9525 Z M60.1820759,19.43225 C55.1226329,19.43225 51.8811139,24.12275 51.8811139,30.6815 C51.8811139,37.114375 55.1894684,41.804875 60.1152405,41.804875 C65.0410127,41.804875 68.3493671,36.78975 68.3493671,30.549 C68.3493671,24.189 65.1078481,19.43225 60.1820759,19.43225 Z M128.133671,15.000125 L118.275443,46.243625 L111.852557,46.243625 L107.768911,32.675625 C106.75354,29.3568011 105.908106,25.9892103 105.235848,22.58575 L105.102177,22.58575 C104.587544,25.991 103.611747,29.402875 102.575797,32.675625 L98.2314937,46.243625 L91.7417722,46.243625 L82.4650127,15.000125 L89.6631899,15.000125 L93.2322025,29.853375 C94.0743291,33.391125 94.7827848,36.730125 95.3709367,39.883625 L95.5046076,39.883625 C96.0192405,37.2535 96.8613671,33.9675 98.0978228,29.919625 L102.575797,15.00675 L108.283544,15.00675 L112.567696,29.601625 C113.603646,33.139375 114.445772,36.610875 115.100759,39.89025 L115.287899,39.89025 C115.74238,36.677125 116.457519,33.26525 117.426633,29.601625 L121.256304,15.00675 L128.133671,15.000125 L128.133671,15.000125 Z M164.425316,46.243625 L157.420962,46.243625 L157.420962,28.303125 C157.420962,22.777875 155.282228,20.008625 151.064911,20.008625 C146.91443,20.008625 144.060557,23.546375 144.060557,27.6605 L144.060557,46.243625 L137.056203,46.243625 L137.056203,23.930625 C137.056203,21.168 136.989367,18.206625 136.795544,14.9935 L142.957772,14.9935 L143.285266,19.8165 L143.479089,19.8165 C145.363848,16.4775 149.186835,14.3575 153.470987,14.3575 C160.087696,14.3575 164.432,19.372625 164.432,27.534625 L164.425316,46.243625 L164.425316,46.243625 Z M183.740759,46.243625 L176.729722,46.243625 L176.729722,0.663625 L183.740759,0.663625 L183.740759,46.243625 Z M209.278582,46.9525 C200.075342,46.9525 194.100253,40.135375 194.100253,30.88025 C194.100253,21.23425 200.195646,14.3575 209.793215,14.3575 C218.876152,14.3575 224.97155,20.85 224.97155,30.370125 C224.978228,40.135375 218.682329,46.9525 209.278582,46.9525 Z M209.539241,19.43225 C204.479797,19.43225 201.238278,24.12275 201.238278,30.6815 C201.238278,37.114375 204.553316,41.804875 209.465722,41.804875 C214.398177,41.804875 217.699858,36.78975 217.699858,30.549 C217.706532,24.189 214.471696,19.43225 209.539241,19.43225 L209.539241,19.43225 Z M252.587949,46.243625 L252.08,42.64625 L251.892861,42.64625 C249.754127,45.541375 246.632911,46.9525 242.676253,46.9525 C237.028658,46.9525 233.018532,43.0305 233.018532,37.757 C233.018532,30.0455 239.762228,26.05725 251.43838,26.05725 L251.43838,25.480875 C251.43838,21.36675 249.239494,19.306375 244.89519,19.306375 C241.787342,19.306375 239.060456,20.0815 236.661063,21.625125 L235.237468,17.0605 C238.151494,15.2585 241.787342,14.3575 246.058127,14.3575 C254.292253,14.3575 258.449418,18.66375 258.449418,27.282875 L258.449418,38.7905 C258.449418,41.944 258.589772,44.388625 258.903899,46.25025 L252.587949,46.243625 L252.587949,46.243625 Z M251.625519,30.6815 C243.845873,30.6815 239.942684,32.54975 239.942684,36.981875 C239.942684,40.26125 241.95443,41.8645 244.748152,41.8645 C248.310481,41.8645 251.625519,39.168125 251.625519,35.5045 L251.625519,30.6815 L251.625519,30.6815 Z M292.461975,46.243625 L292.134481,41.2285 L291.940658,41.2285 C289.928911,45.018 286.547038,46.9525 281.821772,46.9525 C274.222582,46.9525 268.595038,40.3275 268.595038,31.006125 C268.595038,21.23425 274.429772,14.350875 282.396557,14.350875 C286.613873,14.350875 289.601418,15.762 291.285671,18.5975 L291.426025,18.5975 L291.426025,0.663625 L298.437063,0.663625 L298.437063,37.82325 C298.437063,40.84425 298.510582,43.673125 298.697722,46.243625 L292.461975,46.243625 Z M291.426025,27.85925 C291.426025,23.48675 288.505316,19.756875 284.047392,19.756875 C278.854278,19.756875 275.679595,24.3215 275.679595,30.74775 C275.679595,37.048125 278.974582,41.361 283.907038,41.361 C288.311494,41.361 291.426025,37.564875 291.426025,33.0665 L291.426025,27.85925 Z M342.889316,46.9525 C333.686076,46.9525 327.717671,40.135375 327.717671,30.88025 C327.717671,21.23425 333.813063,14.3575 343.410633,14.3575 C352.49357,14.3575 358.588967,20.85 358.588967,30.370125 C358.595646,40.135375 352.30643,46.9525 342.889316,46.9525 Z M343.149975,19.43225 C338.097215,19.43225 334.855696,24.12275 334.855696,30.6815 C334.855696,37.114375 338.164051,41.804875 343.083139,41.804875 C348.015595,41.804875 351.317307,36.78975 351.317307,30.549 C351.330633,24.189 348.089114,19.43225 343.149975,19.43225 Z M396.257418,46.243625 L389.24638,46.243625 L389.24638,28.303125 C389.24638,22.777875 387.107646,20.008625 382.890329,20.008625 C378.739848,20.008625 375.892658,23.546375 375.892658,27.6605 L375.892658,46.243625 L368.88162,46.243625 L368.88162,23.930625 C368.88162,21.168 368.814785,18.206625 368.620962,14.9935 L374.78319,14.9935 L375.110684,19.8165 L375.304506,19.8165 C377.182582,16.4775 381.012253,14.350875 385.289722,14.350875 C391.90643,14.350875 396.257418,19.366 396.257418,27.528 L396.257418,46.243625 Z M443.383089,20.207375 L435.676962,20.207375 L435.676962,35.378625 C435.676962,39.241 437.027038,41.168875 439.753924,41.168875 C440.99038,41.168875 442.026329,41.036375 442.861772,40.84425 L443.055595,46.11775 C441.698835,46.6345 439.880911,46.892875 437.621873,46.892875 C432.101266,46.892875 428.799595,43.871875 428.799595,35.961625 L428.799595,20.207375 L424.201316,20.207375 L424.201316,15.000125 L428.799595,15.000125 L428.799595,9.276125 L435.676962,7.21575 L435.676962,14.9935 L443.383089,14.9935 L443.383089,20.207375 L443.383089,20.207375 Z M480.463392,46.243625 L473.465722,46.243625 L473.465722,28.435625 C473.465722,22.844125 471.333671,20.01525 467.109671,20.01525 C463.480506,20.01525 460.098633,22.459875 460.098633,27.40875 L460.098633,46.243625 L453.100962,46.243625 L453.100962,0.663625 L460.098633,0.663625 L460.098633,19.43225 L460.238987,19.43225 C462.444557,16.027 465.639291,14.350875 469.716253,14.350875 C476.38643,14.350875 480.463392,19.491875 480.463392,27.6605 L480.463392,46.243625 L480.463392,46.243625 Z M518.452658,32.291375 L497.432911,32.291375 C497.566582,38.2075 501.516557,41.5465 507.364658,41.5465 C510.472506,41.5465 513.333063,41.02975 515.859443,40.069125 L516.948861,44.892125 C513.968,46.177375 510.459139,46.82 506.375494,46.82 C496.517266,46.82 490.682532,40.6455 490.682532,31.072375 C490.682532,21.492625 496.65762,14.29125 505.586835,14.29125 C513.640506,14.29125 518.693266,20.207375 518.693266,29.1445 C518.738558,30.1991936 518.657794,31.255495 518.452658,32.291375 L518.452658,32.291375 Z M512.029772,27.3425 C512.029772,22.5195 509.576911,19.11425 505.098937,19.11425 C501.075443,19.11425 497.894076,22.58575 497.439595,27.3425 L512.029772,27.3425 L512.029772,27.3425 Z" id="Shape"></path>
            </g>
        </g>
    </g>
</svg>