<?xml version="1.0" encoding="UTF-8"?>
<svg width="47px" height="53px" viewBox="0 0 47 53" version="1.1" xmlns="http://www.w3.org/2000/svg" xmlns:xlink="http://www.w3.org/1999/xlink">
    <!-- Generator: Sketch 57.1 (83088) - https://sketch.com -->
    <title>Black and white letter gJ Jg g J oJ Joinitial logo icon1</title>
    <desc>Created with Sketch.</desc>
    <g id="Page-1" stroke="none" stroke-width="1" fill="none" fill-rule="evenodd">
        <g id="Group" transform="translate(-20.000000, -23.000000)" fill="#FFFFFF">
            <g id="Black-and-white-letter-gJ-Jg-g-J-oJ-Joinitial-logo-icon1" transform="translate(20.000000, 23.000000)">
                <path d="M47,0 L47,29.4444444 C47,31.4777469 46.7437158,33.4513426 46.2588978,35.3333333 C45.7683665,37.2431327 45.0452205,39.0596914 44.1196589,40.7494753 C44.0339588,40.9081481 43.9458101,41.0660031 43.8543966,41.2222222 C43.0708524,42.5815741 42.1542689,43.8542284 41.1234186,45.0246451 C40.4737299,45.7632099 39.7791506,46.4600617 39.0421294,47.1111111 C38.7801318,47.3425772 38.5140533,47.5683179 38.2422614,47.7875154 C37.300376,48.5489815 36.2997248,49.2384722 35.2468373,49.8486265 C34.3237243,50.3843519 33.3598017,50.8579167 32.3624152,51.2652315 C31.3960441,51.6610957 30.3970252,51.9931636 29.3702559,52.2573457 C28.4291867,52.5002623 27.4652641,52.6867438 26.4825691,52.8118827 C25.5031389,52.9362037 24.5065686,53 23.4940826,53 C22.5146524,53 21.5490974,52.9402932 20.6014987,52.8233333 C19.5853398,52.6981944 18.5895857,52.5084414 17.6175012,52.2573457 C16.6250119,52.0021605 15.6578246,51.6823611 14.7208363,51.3036728 C13.6891698,50.888179 12.694232,50.4007099 11.7409199,49.8486265 C10.7231286,49.2581019 9.75349269,48.593966 8.83935781,47.8619444 C8.53491825,47.6190278 8.23700822,47.36875 7.94562773,47.1111111 C7.20942267,46.4600617 6.51402721,45.7632099 5.86433849,45.0246451 C4.83348818,43.8542284 3.91772091,42.5815741 3.13336054,41.2222222 C3.07377853,41.1191667 3.01501272,41.0152932 2.9570631,40.9114198 L2.9570631,40.9032407 C1.98905956,39.1676543 1.23489828,37.3044753 0.728859328,35.3333333 C0.306888138,33.6901698 0.05713343,31.9783025 0.000816191857,30.2173611 L0.000816191857,30.0979475 L0,29.4444444 L5.86433849,29.4444444 C5.86433849,31.5096451 6.21774957,33.4914198 6.86743829,35.3333333 C7.36123436,36.7327623 8.02643072,38.0512191 8.83690924,39.2633488 C9.29724145,39.9520216 9.80409659,40.6063426 10.3550261,41.2222222 C10.7900564,41.7113272 11.2528371,42.1750772 11.7409199,42.6110185 C12.6534224,43.4297377 13.6508088,44.1543981 14.719204,44.7702778 C15.6366036,45.298642 16.6054233,45.7468519 17.6175012,46.1059105 C18.5757105,46.4453395 19.5730969,46.7037963 20.5998663,46.8739198 C21.5417517,47.0301389 22.5081228,47.1111111 23.4940826,47.1111111 C24.5114658,47.1111111 25.5104846,47.0244136 26.4801205,46.8583796 C27.4750584,46.6882562 28.4414296,46.4347068 29.3702559,46.1059105 C30.4166138,45.7354012 31.4164489,45.2683796 32.3599667,44.7171142 C33.3940817,44.1126852 34.3612691,43.4068364 35.2468373,42.6110185 C35.7357362,42.1750772 36.198517,41.7113272 36.6335472,41.2222222 C37.2187568,40.5670833 37.7566272,39.8685957 38.2389966,39.1308488 C39.0102979,37.9555247 39.644479,36.6820525 40.1203188,35.3333333 C40.7700076,33.4914198 41.1234186,31.5096451 41.1234186,29.4444444 L41.1234186,0 L47,0" id="Fill-3"></path>
                <path d="M30.6640405,12.3770824 C30.3541436,14.0723339 29.2274036,15.5152025 27.6666343,16.3556854 C26.7378116,16.856483 25.6553426,17.1429932 24.5000434,17.1429932 C23.3767756,17.1429932 22.3229525,16.8723561 21.4123591,16.3977492 C19.810791,15.5644092 18.6510648,14.1009056 18.3359595,12.3770824 C18.2795357,12.0683497 18.2500217,11.7516806 18.2500217,11.4286621 C18.2500217,9.30086747 19.5225956,7.44450353 21.4088868,6.46116239 C22.2917024,6.00084128 23.3099351,5.73179152 24.3950083,5.71512472 C24.4297307,5.71433107 24.4653211,5.71433107 24.5000434,5.71433107 C24.5537762,5.71433107 24.6075959,5.71512472 24.6614155,5.71591838 C25.7551693,5.74131541 26.7786103,6.02385733 27.663162,6.49925793 C29.5103907,7.49212295 30.7499783,9.32785181 30.7499783,11.4286621 C30.7499783,11.7516806 30.7204643,12.0683497 30.6640405,12.3770824 Z M30.7499783,0 L30.7499783,1.52937722 C29.7933778,1.02302399 28.7569158,0.630163731 27.6614259,0.369050548 C26.6518738,0.127778792 25.5919743,0 24.5000434,0 C23.4323314,0 22.3958694,0.122223192 21.4062827,0.352383749 C20.285619,0.613496933 19.2257195,1.01270645 18.2500217,1.52937722 C17.0859552,2.14446146 16.0408126,2.9262137 15.1545248,3.83971301 C14.5946271,4.41511441 14.0972295,5.04289717 13.6727489,5.71433107 C13.1137191,6.59767141 12.6805579,7.55561552 12.3949666,8.56832197 C12.1371533,9.48261494 12,10.4405591 12,11.4286621 C12,12.7651807 12.2508689,14.0477305 12.711808,15.2398035 C12.9696214,15.9048881 13.2916712,16.5414011 13.6727489,17.1429932 C14.0989656,17.8160144 14.5972312,18.4453845 15.1597332,19.0223732 L15.1597332,19.0231669 C15.4956719,19.3684077 15.85418,19.6946008 16.2335216,20.0001587 C16.8533155,20.5009564 17.528665,20.946198 18.2500217,21.327947 C18.4757169,21.4477893 18.7074886,21.5612822 18.9427324,21.6684259 C19.7231171,22.0231907 20.5503769,22.3057326 21.4140952,22.5065278 C22.4010778,22.7351011 23.4349355,22.8573243 24.5000434,22.8573243 C25.5945785,22.8573243 26.6570821,22.7287518 27.6683704,22.4866864 C28.5017066,22.2874785 29.3011885,22.0120795 30.0572676,21.6684259 C30.2925114,21.5612822 30.5242831,21.4477893 30.7499783,21.327947 L30.7499783,28.5713379 C30.7499783,30.6681799 29.5138629,32.5015278 27.6718426,33.4959801 C26.7855548,33.9745554 25.7586415,34.2586846 24.6614155,34.2840816 C24.6075959,34.2856689 24.5537762,34.2856689 24.5000434,34.2856689 C23.3793798,34.2856689 22.3272928,34.0158255 21.4175674,33.5435996 L21.4175674,33.5428059 C19.5260678,32.5610521 18.2500217,30.7023072 18.2500217,28.5713379 L12,28.5713379 C12,29.5594409 12.1371533,30.5173851 12.3949666,31.431678 C12.6805579,32.4443845 13.1137191,33.4023286 13.6727489,34.2856689 C14.0998337,34.9610711 14.6007035,35.5920285 15.1649415,36.1706045 L15.1649415,36.1713982 C16.0494932,37.0801356 17.0902955,37.8579195 18.2500217,38.4706228 C19.2300598,38.9888809 20.2942996,39.3896777 21.4201716,39.6499972 L21.4201716,39.6507909 C22.4054181,39.8785705 23.4375397,40 24.5000434,40 C25.5963146,40 26.6605544,39.8706339 27.6735787,39.6285685 L27.6735787,39.6277748 C28.7647283,39.3674553 29.79685,38.974595 30.7499783,38.4706228 C31.9496352,37.8364908 33.0234237,37.0253732 33.9270727,36.0753657 C34.4539842,35.5229803 34.9236039,34.9237692 35.3272511,34.2856689 C35.8862809,33.4023286 36.3194421,32.4443845 36.6050334,31.431678 C36.8628467,30.5173851 37,29.5594409 37,28.5713379 L37,0 L30.7499783,0 L30.7499783,0 Z" id="Fill-4"></path>
            </g>
        </g>
    </g>
</svg>