<?xml version="1.0" encoding="UTF-8"?>
<svg width="29px" height="33px" viewBox="0 0 29 33" version="1.1" xmlns="http://www.w3.org/2000/svg" xmlns:xlink="http://www.w3.org/1999/xlink">
    <!-- Generator: Sketch 57.1 (83088) - https://sketch.com -->
    <title>Black and white letter gJ Jg g J oJ Joinitial logo icon1</title>
    <desc>Created with Sketch.</desc>
    <g id="Page-1" stroke="none" stroke-width="1" fill="none" fill-rule="evenodd">
        <g id="Desktop" transform="translate(-486.000000, -44.000000)" fill="#FFFFFF">
            <g id="Black-and-white-letter-gJ-Jg-g-J-oJ-Joinitial-logo-icon1" transform="translate(486.000000, 44.000000)">
                <path d="M29,0 L29,18.3333333 C29,19.5993519 28.8418672,20.8281944 28.5427242,22 C28.2400559,23.1891204 27.7938595,24.3201852 27.2227683,25.3723148 C27.1698895,25.4711111 27.1154998,25.5693981 27.0590958,25.6666667 C26.5756323,26.5130556 26.0100808,27.305463 25.3740243,28.034213 C24.9731525,28.4940741 24.5445823,28.927963 24.0898245,29.3333333 C23.9281664,29.4774537 23.7639903,29.6180093 23.5962889,29.7544907 C23.0151256,30.2286111 22.3977025,30.6579167 21.7480485,31.0378241 C21.1784682,31.3713889 20.5837074,31.66625 19.9682988,31.9198611 C19.3720272,32.1663426 18.7556113,32.3731019 18.1220728,32.5375926 C17.5414131,32.6888426 16.9466523,32.8049537 16.3403086,32.8828704 C15.7359793,32.9602778 15.1210742,33 14.4963488,33 C13.8920196,33 13.2962516,32.9628241 12.711563,32.89 C12.0845714,32.8120833 11.4701699,32.6939352 10.8703731,32.5375926 C10.2579861,32.3787037 9.66121092,32.1795833 9.08306923,31.9437963 C8.44650904,31.6850926 7.83261121,31.3815741 7.24439736,31.0378241 C6.61639851,30.6701389 6.01811251,30.2566204 5.45407184,29.8008333 C5.26622615,29.6495833 5.08240933,29.49375 4.90262137,29.3333333 C4.44836718,28.927963 4.01929339,28.4940741 3.61842162,28.034213 C2.98236505,27.305463 2.41731716,26.5130556 1.93335012,25.6666667 C1.89658676,25.6025 1.860327,25.5378241 1.82457085,25.4731481 L1.82457085,25.4680556 C1.22729207,24.3874074 0.761958513,23.2273148 0.449721713,22 C0.189356511,20.9768981 0.0352525419,19.9110185 0.000503607742,18.8145833 L0.000503607742,18.7402315 L0,18.3333333 L3.61842162,18.3333333 C3.61842162,19.619213 3.83648378,20.8531481 4.23735554,22 C4.54203822,22.8713426 4.95247853,23.6922685 5.45256102,24.4469907 C5.73659579,24.875787 6.04933619,25.2831944 6.38927142,25.6666667 C6.65769434,25.9712037 6.94323993,26.2599537 7.24439736,26.5313889 C7.80743082,27.0411574 8.42283948,27.4923611 9.08206201,27.8758333 C9.64811711,28.2048148 10.2458995,28.4838889 10.8703731,28.7074537 C11.4616086,28.9187963 12.0770173,29.0797222 12.7105558,29.1856481 C13.2917191,29.2829167 13.8879907,29.3333333 14.4963488,29.3333333 C15.1240959,29.3333333 15.7405118,29.2793519 16.3387978,29.1759722 C16.9526956,29.0700463 17.5489672,28.9121759 18.1220728,28.7074537 C18.7676979,28.4767593 19.3846174,28.1859722 19.9667879,27.8427315 C20.6048589,27.4663889 21.2016341,27.0268981 21.7480485,26.5313889 C22.0497096,26.2599537 22.3352551,25.9712037 22.6036781,25.6666667 C22.9647648,25.25875 23.2966423,24.8238426 23.5942745,24.3644907 C24.0701838,23.6326852 24.461487,22.8397685 24.7550903,22 C25.1559621,20.8531481 25.3740243,19.619213 25.3740243,18.3333333 L25.3740243,0 L29,0" id="Fill-3"></path>
                <path d="M18.1984243,7.73567647 C18.0124862,8.79520869 17.3364421,9.69700156 16.3999806,10.2223034 C15.842687,10.5353019 15.1932055,10.7143707 14.500026,10.7143707 C13.8260654,10.7143707 13.1937715,10.5452226 12.6474154,10.2485932 C11.6864746,9.72775578 10.9906389,8.81306598 10.8015757,7.73567647 C10.7677214,7.54271859 10.750013,7.34480036 10.750013,7.14291383 C10.750013,5.81304217 11.5135573,4.6528147 12.6453321,4.03822649 C13.1750214,3.7505258 13.7859611,3.5823697 14.437005,3.57195295 C14.4578384,3.57145692 14.4791926,3.57145692 14.500026,3.57145692 C14.5322657,3.57145692 14.5645575,3.57195295 14.5968493,3.57244899 C15.2531016,3.58832213 15.8671662,3.76491083 16.3978972,4.06203621 C17.5062344,4.68257685 18.249987,5.82990738 18.249987,7.14291383 C18.249987,7.34480036 18.2322786,7.54271859 18.1984243,7.73567647 Z M18.249987,0 L18.249987,0.955860761 C17.6760267,0.639389995 17.0541495,0.393852332 16.3968555,0.230656593 C15.7911243,0.0798617449 15.1551846,0 14.500026,0 C13.8593988,0 13.2375217,0.0763894952 12.6437696,0.220239843 C11.9713714,0.383435583 11.3354317,0.632941531 10.750013,0.955860761 C10.0515731,1.34028841 9.42448759,1.82888356 8.89271491,2.39982063 C8.55677624,2.7594465 8.2583377,3.15181073 8.00364932,3.57145692 C7.66823149,4.12354463 7.40833475,4.7222597 7.23697999,5.35520123 C7.08229195,5.92663434 7,6.52534941 7,7.14291383 C7,7.97823792 7.15052136,8.77983159 7.42708482,9.52487718 C7.58177285,9.94055508 7.77500269,10.3383757 8.00364932,10.7143707 C8.25937937,11.135009 8.55833874,11.5283653 8.89583992,11.8889832 L8.89583992,11.8894793 C9.09740312,12.1052548 9.31250803,12.3091255 9.54011299,12.5000992 C9.91198928,12.8130977 10.317199,13.0913737 10.750013,13.3299669 C10.8854302,13.4048683 11.0244931,13.4758014 11.1656395,13.5427662 C11.6338703,13.7644942 12.1302261,13.9410829 12.6484571,14.0665799 C13.2406467,14.2094382 13.8609613,14.2858277 14.500026,14.2858277 C15.1567471,14.2858277 15.7942493,14.2054699 16.4010222,14.054179 C16.901024,13.929674 17.3807131,13.7575497 17.8343605,13.5427662 C17.9755069,13.4758014 18.1145698,13.4048683 18.249987,13.3299669 L18.249987,17.8570862 C18.249987,19.1676124 17.5083177,20.3134549 16.4031056,20.9349876 C15.8713329,21.2340971 15.2551849,21.4116779 14.5968493,21.427551 C14.5645575,21.4285431 14.5322657,21.4285431 14.500026,21.4285431 C13.8276279,21.4285431 13.1963757,21.259891 12.6505405,20.9647497 L12.6505405,20.9642537 C11.5156407,20.3506575 10.750013,19.188942 10.750013,17.8570862 L7,17.8570862 C7,18.4746506 7.08229195,19.0733657 7.23697999,19.6447988 C7.40833475,20.2777403 7.66823149,20.8764554 8.00364932,21.4285431 C8.25990021,21.8506694 8.56042208,22.2450178 8.89896493,22.6066278 L8.89896493,22.6071239 C9.42969594,23.1750847 10.0541773,23.6611997 10.750013,24.0441392 C11.3380359,24.3680505 11.9765798,24.6185486 12.652103,24.7812483 L12.652103,24.7817443 C13.2432508,24.9241065 13.8625238,25 14.500026,25 C15.1577887,25 15.7963326,24.9191462 16.4041472,24.7678553 L16.4041472,24.7673593 C17.058837,24.6046596 17.67811,24.3591219 18.249987,24.0441392 C18.9697811,23.6478067 19.6140542,23.1408583 20.1562436,22.5471035 C20.4723905,22.2018627 20.7541623,21.8273558 20.9963507,21.4285431 C21.3317685,20.8764554 21.5916652,20.2777403 21.76302,19.6447988 C21.917708,19.0733657 22,18.4746506 22,17.8570862 L22,0 L18.249987,0 L18.249987,0 Z" id="Fill-4"></path>
            </g>
        </g>
    </g>
</svg>