<?xml version="1.0" encoding="UTF-8"?>
<svg width="309px" height="309px" viewBox="0 0 309 309" version="1.1" xmlns="http://www.w3.org/2000/svg" xmlns:xlink="http://www.w3.org/1999/xlink">
    <!-- Generator: Sketch 57.1 (83088) - https://sketch.com -->
    <title>medium</title>
    <desc>Created with Sketch.</desc>
    <g id="Page-1" stroke="none" stroke-width="1" fill="none" fill-rule="evenodd">
        <g id="medium" fill="#808080" fill-rule="nonzero">
            <g id="iconmonstr-medium-1">
                <path d="M154.5,0 C239.827994,0 309,69.1720062 309,154.5 C309,239.827994 239.827994,309 154.5,309 C69.1720062,309 0,239.827994 0,154.5 C0,69.1720062 69.1720062,0 154.5,0 Z M119.4575,83 L67.2725,83 L67.2725,86.024668 L84.0725,106.289193 C85.7225,107.775258 86.57,109.959324 86.345,112.173411 L86.345,112.173411 L86.345,112.173411 L86.345,191.790479 C86.8325,194.657534 85.9325,197.592138 83.9075,199.686139 L83.9075,199.686139 L65,222.63759 L65,225.669763 L118.61,225.669763 L118.61,222.63759 L99.7025,199.686139 C97.67,197.599643 96.71,194.68005 97.1,191.790479 L97.1,191.790479 L97.1,122.936126 L144.1625,225.669763 L149.6225,225.669763 L190.04,122.936126 L190.039351,205.293785 C190.031568,207.074497 189.930385,207.533879 188.615,208.850207 L188.615,208.850207 L174.0725,222.975332 L174.0725,226 L244.6625,226 L244.6625,222.975332 L230.63,209.187949 C229.3925,208.242272 228.7775,206.688658 229.0325,205.15756 L229.0325,205.15756 L229.0325,103.849945 C228.7775,102.311342 229.3925,100.757728 230.63,99.8120506 L230.63,99.8120506 L245,86.024668 L245,83 L195.2525,83 L159.7925,171.525954 L119.4575,83 Z" id="Combined-Shape"></path>
            </g>
        </g>
    </g>
</svg>