<?xml version="1.0" encoding="UTF-8"?>
<svg width="260px" height="260px" viewBox="0 0 260 260" version="1.1" xmlns="http://www.w3.org/2000/svg" xmlns:xlink="http://www.w3.org/1999/xlink">
    <!-- Generator: Sketch 57.1 (83088) - https://sketch.com -->
    <title>linkedin</title>
    <desc>Created with Sketch.</desc>
    <g id="Page-1" stroke="none" stroke-width="1" fill="none" fill-rule="evenodd">
        <g id="linkedin" fill="#808080" fill-rule="nonzero">
            <path d="M239.207433,0 L22.2140538,0 C10.3620434,0 0,8.53347226 0,20.2500651 L0,237.718156 C0,249.502475 10.3620434,260 22.2140538,260 L239.139707,260 C251.059443,260 259.999625,249.434749 259.999625,237.718156 L259.999625,20.2500651 C260.066971,8.53347226 251.059443,0 239.207433,0 Z M80.5936708,216.723105 L43.3444952,216.723105 L43.3444952,100.911696 L80.5936708,100.911696 L80.5936708,216.723105 Z M63.2558727,83.3029435 L62.9849696,83.3029435 C51.0652334,83.3029435 43.3444952,74.4308414 43.3444952,63.3237822 C43.3444952,52.0135452 51.2684107,43.344621 63.45905,43.344621 C75.6496893,43.344621 83.0995244,51.9458192 83.3704275,63.3237822 C83.3704275,74.4308414 75.6496893,83.3029435 63.2558727,83.3029435 Z M216.722476,216.723105 L179.4733,216.723105 L179.4733,153.399323 C179.4733,138.228705 174.055239,127.866632 160.57781,127.866632 C150.283492,127.866632 144.188172,134.842407 141.479141,141.615004 C140.463255,144.053139 140.192352,147.371711 140.192352,150.75801 L140.192352,216.723105 L102.943176,216.723105 L102.943176,100.911696 L140.192352,100.911696 L140.192352,117.030477 C145.610414,109.309716 154.076135,98.2026569 173.784335,98.2026569 C198.23334,98.2026569 216.722476,114.321438 216.722476,149.064861 L216.722476,216.723105 L216.722476,216.723105 Z" id="Shape"></path>
        </g>
    </g>
</svg>